<svg width="26" height="36" viewBox="0 0 26 36" fill="none" xmlns="http://www.w3.org/2000/svg">
<path d="M16.9091 19.1429C15.6 19.1429 13.56 19.5314 12 20.2857C10.44 19.52 8.4 19.1429 7.09091 19.1429C4.72364 19.1429 0 20.3771 0 22.8571V26H24V22.8571C24 20.3771 19.2764 19.1429 16.9091 19.1429ZM12.5455 24.2857H1.63636V22.8571C1.63636 22.24 4.42909 20.8571 7.09091 20.8571C9.75273 20.8571 12.5455 22.24 12.5455 22.8571V24.2857ZM22.3636 24.2857H14.1818V22.8571C14.1818 22.3314 13.9636 21.8743 13.6145 21.4629C14.5745 21.12 15.7527 20.8571 16.9091 20.8571C19.5709 20.8571 22.3636 22.24 22.3636 22.8571V24.2857ZM7.09091 18C9.19636 18 10.9091 16.2057 10.9091 14C10.9091 11.7943 9.19636 10 7.09091 10C4.98546 10 3.27273 11.7943 3.27273 14C3.27273 16.2057 4.98546 18 7.09091 18ZM7.09091 11.7143C8.29091 11.7143 9.27273 12.7429 9.27273 14C9.27273 15.2571 8.29091 16.2857 7.09091 16.2857C5.89091 16.2857 4.90909 15.2571 4.90909 14C4.90909 12.7429 5.89091 11.7143 7.09091 11.7143ZM16.9091 18C19.0145 18 20.7273 16.2057 20.7273 14C20.7273 11.7943 19.0145 10 16.9091 10C14.8036 10 13.0909 11.7943 13.0909 14C13.0909 16.2057 14.8036 18 16.9091 18ZM16.9091 11.7143C18.1091 11.7143 19.0909 12.7429 19.0909 14C19.0909 15.2571 18.1091 16.2857 16.9091 16.2857C15.7091 16.2857 14.7273 15.2571 14.7273 14C14.7273 12.7429 15.7091 11.7143 16.9091 11.7143Z" fill="currentColor"/>
</svg>
