<svg width="24" height="25" viewBox="0 0 24 25" fill="none" xmlns="http://www.w3.org/2000/svg">
<path d="M5 19.7363C4.71667 19.7363 4.479 19.6403 4.287 19.4483C4.09567 19.257 4 19.0197 4 18.7363C4 18.453 4.09567 18.2157 4.287 18.0243C4.479 17.8323 4.71667 17.7363 5 17.7363H6V10.7363C6 9.35299 6.41667 8.12366 7.25 7.04833C8.08333 5.97366 9.16667 5.26966 10.5 4.93633V4.23633C10.5 3.81966 10.646 3.46566 10.938 3.17433C11.2293 2.88233 11.5833 2.73633 12 2.73633C12.4167 2.73633 12.7707 2.88233 13.062 3.17433C13.354 3.46566 13.5 3.81966 13.5 4.23633V4.93633C14.8333 5.26966 15.9167 5.97366 16.75 7.04833C17.5833 8.12366 18 9.35299 18 10.7363V17.7363H19C19.2833 17.7363 19.5207 17.8323 19.712 18.0243C19.904 18.2157 20 18.453 20 18.7363C20 19.0197 19.904 19.257 19.712 19.4483C19.5207 19.6403 19.2833 19.7363 19 19.7363H5ZM12 22.7363C11.45 22.7363 10.9793 22.5407 10.588 22.1493C10.196 21.7573 10 21.2863 10 20.7363H14C14 21.2863 13.8043 21.7573 13.413 22.1493C13.021 22.5407 12.55 22.7363 12 22.7363Z" fill="white"/>
</svg>
