<svg width="61" height="65" viewBox="0 0 61 65" fill="none" xmlns="http://www.w3.org/2000/svg">
<path d="M7.71115 25.5586H3.22485V41.0884H7.71115V25.5586Z" fill="white"/>
<path d="M5.46807 23.4448C6.97805 23.4448 8.20214 22.3315 8.20214 20.9582C8.20214 19.5849 6.97805 18.4717 5.46807 18.4717C3.95809 18.4717 2.73401 19.5849 2.73401 20.9582C2.73401 22.3315 3.95809 23.4448 5.46807 23.4448Z" fill="white"/>
<path d="M43.0109 25.3633C41.2509 25.3622 39.5485 26.0013 38.2111 27.1652V25.561H33.7249V46.5286H38.2111V39.2865C39.549 40.4493 41.2511 41.0883 43.0109 41.0884C47.1716 41.0884 50.5448 37.5686 50.5448 33.2258C50.5448 28.883 47.1716 25.3633 43.0109 25.3633ZM42.0996 37.6082C40.1554 37.6082 38.5271 36.0683 38.2111 34.0489V32.598C38.5271 30.5786 40.1554 29.0387 42.0996 29.0387C44.2868 29.0387 46.0488 30.9568 46.0488 33.3222C46.0488 35.6876 44.2796 37.6082 42.0996 37.6082Z" fill="white"/>
<path d="M57.7749 25.5586H53.2886V41.0884H57.7749V25.5586Z" fill="white"/>
<path d="M55.5318 23.4448C57.0418 23.4448 58.2659 22.3315 58.2659 20.9582C58.2659 19.5849 57.0418 18.4717 55.5318 18.4717C54.0218 18.4717 52.7977 19.5849 52.7977 20.9582C52.7977 22.3315 54.0218 23.4448 55.5318 23.4448Z" fill="white"/>
<path d="M25.2188 20.958V33.1782C25.1604 35.3879 23.6051 37.4122 20.9026 37.4122C19.7682 37.4367 18.6693 37.0091 17.8406 36.2207C17.0119 35.4324 16.5191 34.3458 16.4673 33.193V20.958H11.9738V33.4402C12.1147 37.7879 15.816 41.4906 20.7689 41.4906C25.9017 41.4906 29.5374 37.783 29.6929 33.4402V20.958H25.2188Z" fill="white"/>
</svg>
