<svg width="505" height="125" viewBox="0 0 505 125" fill="none" xmlns="http://www.w3.org/2000/svg">
<g filter="url(#filter0_d_263_2016)">
<rect x="4" width="497" height="116.839" rx="4" fill="#1579B0" shape-rendering="crispEdges"/>
<path d="M147.383 95.7422L150.602 102.657H149.863L148.775 100.393H145.81L144.739 102.657H144L147.253 95.7479L147.383 95.7422ZM147.293 97.2077L146.114 99.7088H148.51L147.293 97.2077Z" fill="white"/>
<path d="M158.095 95.7422H158.783V98.6393H162.29V95.7422H162.977V102.657H162.29V99.3184H158.783V102.657H158.095V95.7422Z" fill="white"/>
<path d="M174.377 95.5667C174.861 95.5539 175.343 95.6402 175.793 95.8201C176.242 96.0001 176.651 96.27 176.993 96.6135C177.337 96.9472 177.608 97.3487 177.79 97.7928C177.971 98.2369 178.059 98.7139 178.048 99.1938C178.044 99.9131 177.828 100.615 177.429 101.212C177.029 101.81 176.463 102.275 175.8 102.55C175.138 102.826 174.41 102.899 173.706 102.761C173.003 102.623 172.356 102.28 171.846 101.774C171.505 101.445 171.236 101.049 171.054 100.611C170.873 100.173 170.784 99.7021 170.792 99.2277C170.786 98.5794 170.952 97.9411 171.271 97.3774C171.581 96.8261 172.031 96.3677 172.576 96.0495C173.121 95.7312 173.741 95.5645 174.372 95.5667H174.377ZM174.411 96.24C173.899 96.2433 173.397 96.3815 172.955 96.6406C172.512 96.8998 172.146 97.2709 171.891 97.7169C171.634 98.176 171.501 98.6952 171.508 99.2221C171.505 99.6064 171.578 99.9875 171.722 100.343C171.867 100.699 172.08 101.023 172.35 101.295C172.62 101.568 172.942 101.784 173.295 101.931C173.649 102.079 174.028 102.154 174.411 102.153C174.931 102.156 175.442 102.021 175.894 101.763C176.337 101.509 176.704 101.139 176.954 100.693C177.213 100.235 177.346 99.7152 177.337 99.1881C177.346 98.6664 177.213 98.1522 176.954 97.6999C176.7 97.2543 176.329 96.8866 175.883 96.6361C175.436 96.376 174.928 96.2393 174.411 96.24Z" fill="white"/>
<path d="M185.907 95.7423H187.277C187.797 95.7244 188.318 95.7547 188.833 95.8329C189.224 95.9162 189.576 96.1295 189.831 96.4383C190.088 96.7584 190.224 97.1592 190.214 97.57C190.221 97.9186 190.129 98.2618 189.949 98.5603C189.768 98.8462 189.504 99.0709 189.194 99.2053C188.761 99.3708 188.299 99.4477 187.835 99.4317L190.31 102.64H189.459L186.984 99.4317H186.595V102.657H185.907V95.7423ZM186.595 96.4157V98.764H187.785C188.128 98.7791 188.471 98.7351 188.799 98.6338C189.011 98.5483 189.192 98.4003 189.318 98.2094C189.442 98.0175 189.507 97.7931 189.504 97.5644C189.507 97.34 189.44 97.1203 189.312 96.9363C189.197 96.7509 189.025 96.608 188.822 96.5289C188.495 96.4278 188.154 96.3856 187.813 96.4044L186.595 96.4157Z" fill="white"/>
<path d="M198.164 95.7422H199.54C200.058 95.7244 200.577 95.7548 201.09 95.8328C201.475 95.9169 201.82 96.1281 202.071 96.4326C202.328 96.7527 202.464 97.1535 202.455 97.5643C202.461 97.9128 202.369 98.2561 202.19 98.5545C202.008 98.8405 201.744 99.0652 201.434 99.1996C201.001 99.365 200.539 99.442 200.075 99.4259L202.55 102.634H201.705L199.224 99.4259H198.835V102.657H198.147L198.164 95.7422ZM198.852 96.4156V98.7639H200.041C200.386 98.7786 200.732 98.7346 201.062 98.6338C201.273 98.5498 201.453 98.4013 201.575 98.2094C201.699 98.0175 201.764 97.793 201.761 97.5643C201.762 97.3411 201.697 97.1226 201.575 96.9362C201.456 96.7518 201.283 96.6093 201.079 96.5288C200.752 96.4277 200.411 96.3855 200.07 96.4043L198.852 96.4156Z" fill="white"/>
<path d="M213.663 95.5666C214.148 95.5544 214.63 95.6408 215.08 95.8208C215.531 96.0007 215.941 96.2703 216.284 96.6134C216.799 97.1205 217.151 97.7704 217.295 98.4795C217.439 99.1887 217.368 99.9248 217.093 100.594C216.817 101.262 216.349 101.833 215.748 102.233C215.147 102.633 214.44 102.844 213.719 102.838C213.241 102.848 212.765 102.761 212.321 102.581C211.877 102.401 211.474 102.132 211.137 101.791C210.796 101.462 210.527 101.066 210.345 100.628C210.164 100.19 210.075 99.719 210.083 99.2446C210.077 98.5962 210.243 97.958 210.562 97.3943C210.872 96.843 211.322 96.3846 211.867 96.0663C212.412 95.748 213.032 95.5814 213.663 95.5835V95.5666ZM213.697 96.2399C213.187 96.238 212.686 96.3749 212.248 96.636C211.801 96.8938 211.431 97.267 211.176 97.7168C210.919 98.1759 210.787 98.6951 210.793 99.222C210.79 99.6063 210.863 99.9874 211.008 100.343C211.152 100.699 211.366 101.023 211.636 101.295C211.906 101.568 212.227 101.784 212.581 101.931C212.934 102.078 213.314 102.154 213.697 102.153C214.217 102.157 214.728 102.022 215.179 101.763C215.626 101.512 215.995 101.142 216.245 100.693C216.5 100.233 216.63 99.7143 216.623 99.188C216.63 98.6671 216.5 98.1536 216.245 97.6998C215.988 97.2547 215.616 96.8873 215.168 96.636C214.721 96.3751 214.213 96.2384 213.697 96.2399Z" fill="white"/>
<path d="M230.368 100.094L230.83 100.592C230.532 100.858 230.267 101.084 229.979 101.282C230.165 101.452 230.413 101.689 230.712 101.995C231.011 102.301 231.157 102.448 231.327 102.651H230.368L229.455 101.706C229.033 102.072 228.562 102.377 228.057 102.612C227.697 102.751 227.315 102.822 226.929 102.821C226.459 102.843 225.999 102.679 225.649 102.363C225.494 102.219 225.371 102.044 225.288 101.849C225.205 101.654 225.165 101.443 225.17 101.231C225.177 100.861 225.29 100.502 225.497 100.196C225.867 99.6911 226.314 99.2481 226.822 98.8828C226.546 98.571 226.302 98.2316 226.095 97.8699C225.993 97.678 225.937 97.4649 225.931 97.2475C225.929 97.084 225.964 96.9221 226.033 96.7741C226.103 96.6261 226.205 96.4958 226.331 96.3931C226.647 96.1298 227.048 95.991 227.459 96.0026C227.731 95.9992 228.001 96.0573 228.248 96.1724C228.477 96.2716 228.673 96.4346 228.812 96.642C228.933 96.8268 228.998 97.0432 228.998 97.2645C228.988 97.5295 228.904 97.7863 228.756 98.0057C228.483 98.382 228.161 98.7189 227.797 99.0073L228.84 100.105L229.522 100.801C229.866 100.518 230.154 100.286 230.368 100.094ZM227.262 99.3921C226.837 99.6886 226.457 100.045 226.134 100.45C225.973 100.659 225.878 100.911 225.863 101.175C225.865 101.308 225.896 101.439 225.954 101.559C226.011 101.679 226.094 101.785 226.196 101.871C226.42 102.074 226.712 102.183 227.014 102.176C227.26 102.175 227.504 102.123 227.73 102.023C228.185 101.81 228.612 101.538 228.998 101.214L227.91 100.082C227.707 99.89 227.491 99.6599 227.262 99.3921ZM227.346 98.4811C227.637 98.266 227.892 98.0063 228.102 97.7115C228.207 97.5743 228.27 97.409 228.282 97.2362C228.279 97.1532 228.256 97.0721 228.215 97.0001C228.174 96.9281 228.115 96.8674 228.045 96.8231C227.864 96.7021 227.648 96.6426 227.431 96.6534C227.218 96.643 227.007 96.7048 226.833 96.8288C226.764 96.8758 226.706 96.9389 226.666 97.0127C226.626 97.0866 226.604 97.169 226.602 97.2532C226.602 97.3766 226.635 97.4976 226.698 97.604C226.885 97.9166 227.102 98.2103 227.346 98.4811Z" fill="white"/>
<path d="M238.752 95.7422H239.44V102.657H238.752V95.7422Z" fill="white"/>
<path d="M247.462 102.657V95.7422H247.615L252.198 101.039V95.7422H252.875V102.657H252.723L248.178 97.4228V102.657H247.462Z" fill="white"/>
<path d="M260.469 95.7422H261.219L263.474 101.078L265.792 95.7422H266.541L263.57 102.657H263.418L260.469 95.7422Z" fill="white"/>
<path d="M274.17 95.7422H278.116V96.4325H274.857V98.5997H278.088V99.2618H274.857V101.978H278.088V102.657H274.175L274.17 95.7422Z" fill="white"/>
<path d="M285.778 95.7423H287.148C287.669 95.7244 288.189 95.7547 288.704 95.8329C289.095 95.9178 289.446 96.1309 289.702 96.4383C289.959 96.7584 290.095 97.1592 290.086 97.57C290.092 97.9186 290 98.2618 289.821 98.5603C289.639 98.8462 289.375 99.0709 289.065 99.2053C288.632 99.3708 288.17 99.4477 287.706 99.4317L290.181 102.64H289.33L286.855 99.4317H286.466V102.657H285.778V95.7423ZM286.466 96.4157V98.764H287.65C287.995 98.7795 288.34 98.7355 288.67 98.6338C288.882 98.5483 289.063 98.4003 289.189 98.2094C289.313 98.0175 289.378 97.7931 289.375 97.5644C289.378 97.34 289.311 97.1203 289.183 96.9363C289.068 96.7509 288.896 96.608 288.693 96.5289C288.365 96.4273 288.021 96.3852 287.678 96.4044L286.466 96.4157Z" fill="white"/>
<path d="M297.291 101.362L297.855 101.011C298.266 101.775 298.745 102.142 299.281 102.142C299.509 102.143 299.734 102.086 299.935 101.978C300.128 101.88 300.288 101.729 300.397 101.543C300.499 101.371 300.553 101.176 300.555 100.977C300.55 100.732 300.469 100.495 300.324 100.298C299.989 99.8647 299.592 99.4834 299.146 99.166C298.752 98.8938 298.39 98.5767 298.069 98.2211C297.833 97.9194 297.706 97.5464 297.708 97.1629C297.703 96.8749 297.777 96.5911 297.922 96.3424C298.067 96.1009 298.276 95.9048 298.526 95.7766C298.787 95.6348 299.08 95.5608 299.377 95.5616C299.698 95.5598 300.013 95.6438 300.29 95.8049C300.646 96.0367 300.951 96.339 301.187 96.6933L300.623 97.1233C300.443 96.8575 300.218 96.6258 299.958 96.4386C299.787 96.3349 299.593 96.2783 299.394 96.2745C299.269 96.2691 299.144 96.2888 299.027 96.3326C298.91 96.3763 298.803 96.4432 298.712 96.5292C298.627 96.6087 298.559 96.7051 298.514 96.8123C298.468 96.9195 298.445 97.035 298.447 97.1516C298.445 97.3034 298.476 97.4538 298.537 97.593C298.627 97.763 298.743 97.9176 298.881 98.0513C298.971 98.1362 299.27 98.3682 299.772 98.7416C300.244 99.0597 300.658 99.458 300.995 99.9186C301.197 100.228 301.303 100.59 301.299 100.96C301.302 101.204 301.253 101.447 301.156 101.671C301.059 101.895 300.916 102.096 300.736 102.261C300.556 102.444 300.34 102.589 300.103 102.686C299.865 102.784 299.611 102.832 299.354 102.827C298.954 102.83 298.561 102.714 298.227 102.493C297.826 102.199 297.505 101.811 297.291 101.362Z" fill="white"/>
<path d="M309.114 95.7422H309.802V102.657H309.114V95.7422Z" fill="white"/>
<path d="M321.1 95.5667C321.584 95.5539 322.066 95.6402 322.515 95.8201C322.965 96.0001 323.374 96.27 323.716 96.6135C324.06 96.9472 324.331 97.3487 324.512 97.7928C324.694 98.2369 324.782 98.7139 324.77 99.1938C324.775 99.6714 324.684 100.145 324.504 100.587C324.324 101.029 324.058 101.431 323.722 101.769C323.385 102.106 322.985 102.373 322.545 102.554C322.104 102.735 321.632 102.825 321.156 102.821C320.677 102.831 320.201 102.743 319.756 102.563C319.311 102.383 318.907 102.115 318.569 101.774C318.229 101.444 317.96 101.048 317.779 100.61C317.598 100.172 317.508 99.7019 317.514 99.2277C317.511 98.5789 317.678 97.9406 317.999 97.3774C318.309 96.8261 318.76 96.3677 319.305 96.0495C319.85 95.7312 320.469 95.5645 321.1 95.5667ZM321.128 96.24C320.617 96.2426 320.115 96.3805 319.673 96.6398C319.232 96.8991 318.866 97.2706 318.614 97.7169C318.354 98.175 318.221 98.6949 318.23 99.2221C318.227 99.6059 318.3 99.9865 318.444 100.342C318.589 100.698 318.802 101.021 319.071 101.293C319.34 101.566 319.661 101.782 320.014 101.93C320.367 102.077 320.746 102.153 321.128 102.153C321.648 102.158 322.16 102.023 322.611 101.763C323.058 101.512 323.427 101.142 323.677 100.693C323.933 100.234 324.066 99.7149 324.06 99.1881C324.066 98.6667 323.933 98.1532 323.677 97.6999C323.419 97.2548 323.047 96.8874 322.6 96.6361C322.153 96.3752 321.645 96.2385 321.128 96.24Z" fill="white"/>
<path d="M332.596 102.657V95.7422H332.748L337.332 101.039V95.7422H338.008V102.657H337.85L333.306 97.4228V102.657H332.596Z" fill="white"/>
<path d="M346.127 95.7422H350.074V96.4325H346.815V98.5997H350.045V99.2618H346.815V101.978H350.045V102.657H346.127V95.7422Z" fill="white"/>
<path d="M356.991 101.361L357.555 101.01C357.967 101.774 358.44 102.142 358.982 102.142C359.208 102.142 359.431 102.086 359.63 101.978C359.818 101.884 359.976 101.74 360.086 101.561C360.197 101.382 360.256 101.176 360.256 100.965C360.253 100.719 360.169 100.481 360.019 100.286C359.683 99.853 359.286 99.4717 358.841 99.1543C358.448 98.8826 358.088 98.5654 357.769 98.2094C357.534 97.9072 357.405 97.5349 357.403 97.1512C357.401 96.8635 357.475 96.5805 357.617 96.3307C357.765 96.0901 357.976 95.8945 358.226 95.7649C358.485 95.6226 358.776 95.5486 359.072 95.5499C359.392 95.5473 359.708 95.6313 359.985 95.7932C360.341 96.025 360.646 96.3273 360.882 96.6816L360.318 97.1116C360.138 96.8476 359.915 96.6161 359.658 96.4269C359.477 96.3197 359.271 96.2631 359.061 96.2628C358.936 96.258 358.811 96.2781 358.694 96.3218C358.577 96.3655 358.47 96.432 358.378 96.5175C358.293 96.597 358.226 96.6934 358.18 96.8006C358.135 96.9078 358.112 97.0234 358.113 97.1399C358.114 97.2921 358.147 97.4425 358.209 97.5813C358.295 97.7525 358.409 97.9076 358.547 98.0396C358.643 98.1245 358.936 98.3565 359.438 98.7299C359.911 99.0502 360.326 99.4481 360.667 99.9069C360.877 100.214 360.992 100.576 361 100.948C361.001 101.192 360.952 101.434 360.855 101.658C360.758 101.882 360.615 102.084 360.436 102.25C360.256 102.433 360.041 102.577 359.803 102.675C359.566 102.772 359.311 102.82 359.055 102.815C358.654 102.82 358.261 102.704 357.927 102.482C357.529 102.191 357.207 101.806 356.991 101.361Z" fill="white"/>
<path d="M240.624 19.6924V47.6681C240.488 52.7268 236.88 57.3611 230.611 57.3611C227.979 57.417 225.43 56.4381 223.507 54.6334C221.585 52.8287 220.441 50.3412 220.321 47.702V19.6924H209.897V48.2679C210.224 58.2212 218.81 66.6977 230.301 66.6977C242.208 66.6977 250.642 58.2099 251.003 48.2679V19.6924H240.624Z" fill="white"/>
<path d="M310.946 25.3849C314.449 25.3849 317.289 22.8363 317.289 19.6925C317.289 16.5486 314.449 14 310.946 14C307.443 14 304.603 16.5486 304.603 19.6925C304.603 22.8363 307.443 25.3849 310.946 25.3849Z" fill="white"/>
<path d="M316.15 30.2227H305.742V65.7751H316.15V30.2227Z" fill="white"/>
<path d="M281.899 29.7754C277.816 29.773 273.867 31.2361 270.764 33.9005V30.2281H260.357V78.2293H270.764V61.6498C273.868 64.312 277.817 65.7748 281.899 65.7749C291.551 65.7749 299.377 57.7171 299.377 47.7751C299.377 37.8331 291.551 29.7754 281.899 29.7754ZM279.785 57.8077C275.275 57.8077 271.497 54.2824 270.764 49.6594V46.3379C271.497 41.7149 275.275 38.1896 279.785 38.1896C284.859 38.1896 288.947 42.5806 288.947 47.9958C288.947 53.411 284.842 57.8077 279.785 57.8077Z" fill="white"/>
<path d="M194.804 25.3849C198.307 25.3849 201.147 22.8363 201.147 19.6925C201.147 16.5486 198.307 14 194.804 14C191.301 14 188.461 16.5486 188.461 19.6925C188.461 22.8363 191.301 25.3849 194.804 25.3849Z" fill="white"/>
<path d="M200.008 30.2227H189.6V65.7751H200.008V30.2227Z" fill="white"/>
</g>
<defs>
<filter id="filter0_d_263_2016" x="0" y="0" width="505" height="124.839" filterUnits="userSpaceOnUse" color-interpolation-filters="sRGB">
<feFlood flood-opacity="0" result="BackgroundImageFix"/>
<feColorMatrix in="SourceAlpha" type="matrix" values="0 0 0 0 0 0 0 0 0 0 0 0 0 0 0 0 0 0 127 0" result="hardAlpha"/>
<feOffset dy="4"/>
<feGaussianBlur stdDeviation="2"/>
<feComposite in2="hardAlpha" operator="out"/>
<feColorMatrix type="matrix" values="0 0 0 0 0 0 0 0 0 0 0 0 0 0 0 0 0 0 0.25 0"/>
<feBlend mode="normal" in2="BackgroundImageFix" result="effect1_dropShadow_263_2016"/>
<feBlend mode="normal" in="SourceGraphic" in2="effect1_dropShadow_263_2016" result="shape"/>
</filter>
</defs>
</svg>
